<?xml version="1.0" standalone="no"?>
<!DOCTYPE svg PUBLIC "-//W3C//DTD SVG 20010904//EN"
 "http://www.w3.org/TR/2001/REC-SVG-20010904/DTD/svg10.dtd">
<svg version="1.0" xmlns="http://www.w3.org/2000/svg"
 width="296.000000pt" height="300.000000pt" viewBox="0 0 296.000000 300.000000"
 preserveAspectRatio="xMidYMid meet">
<metadata>
Created by potrace 1.10, written by Peter Selinger 2001-2011
</metadata>
<g transform="translate(0.000000,300.000000) scale(0.100000,-0.100000)"
fill="#000000" stroke="none">
<path d="M1249 2987 c-7 -7 -30 -11 -55 -8 -28 2 -44 -1 -44 -8 0 -6 -18 -11
-40 -11 -22 0 -40 -4 -40 -10 0 -5 -13 -10 -30 -10 -16 0 -30 -4 -30 -10 0 -5
-11 -10 -25 -10 -14 0 -25 -4 -25 -10 0 -5 -13 -10 -30 -10 -16 0 -30 -4 -30
-10 0 -5 -9 -10 -20 -10 -11 0 -20 -4 -20 -10 0 -5 -9 -10 -20 -10 -11 0 -20
-3 -20 -8 0 -6 -74 -44 -91 -46 -3 -1 -13 -9 -23 -18 -10 -10 -25 -18 -35 -18
-9 0 -23 -9 -31 -20 -8 -11 -23 -20 -34 -20 -11 0 -17 -3 -13 -6 7 -7 -38 -54
-53 -54 -5 0 -10 -4 -10 -10 0 -5 -4 -10 -10 -10 -14 0 -190 -177 -190 -191 0
-6 -13 -24 -30 -39 -16 -15 -30 -32 -30 -37 0 -5 -9 -15 -20 -23 -11 -8 -20
-22 -20 -31 0 -10 -8 -25 -17 -35 -10 -10 -18 -20 -19 -23 -2 -17 -40 -91 -46
-91 -5 0 -8 -9 -8 -20 0 -11 -4 -20 -10 -20 -5 0 -10 -9 -10 -20 0 -11 -4 -20
-10 -20 -5 0 -10 -9 -10 -20 0 -11 -4 -20 -10 -20 -5 0 -10 -14 -10 -31 0 -17
-4 -28 -10 -24 -6 4 -10 -7 -10 -24 0 -17 -4 -31 -10 -31 -5 0 -10 -13 -10
-30 0 -16 -5 -30 -11 -30 -7 0 -10 -16 -8 -44 3 -26 -1 -48 -8 -55 -18 -16
-18 -566 0 -582 7 -7 11 -29 8 -55 -2 -28 1 -44 8 -44 6 0 11 -13 11 -30 0
-16 5 -30 10 -30 6 0 10 -14 10 -31 0 -17 4 -28 10 -24 6 4 10 -7 10 -24 0
-17 5 -31 10 -31 6 0 10 -9 10 -20 0 -11 5 -20 10 -20 6 0 10 -9 10 -20 0 -11
5 -20 10 -20 6 0 10 -9 10 -20 0 -11 3 -20 8 -20 6 0 44 -74 46 -91 1 -3 9
-13 19 -23 9 -10 17 -25 17 -35 0 -9 9 -23 20 -31 11 -8 20 -18 20 -23 0 -5
13 -22 30 -37 16 -15 30 -33 30 -39 0 -13 176 -191 188 -191 14 0 82 -67 75
-74 -3 -3 2 -6 13 -6 11 0 26 -9 34 -20 8 -11 22 -20 31 -20 10 0 25 -8 35
-17 10 -10 20 -18 23 -19 17 -2 91 -40 91 -46 0 -5 9 -8 20 -8 11 0 20 -4 20
-10 0 -5 9 -10 20 -10 11 0 20 -4 20 -10 0 -5 14 -10 30 -10 17 0 30 -4 30
-10 0 -5 11 -10 25 -10 14 0 25 -4 25 -10 0 -5 14 -10 30 -10 17 0 30 -4 30
-10 0 -5 18 -10 40 -10 22 0 40 -5 40 -11 0 -7 16 -10 44 -8 26 3 48 -1 55 -9
17 -18 317 -15 335 4 8 7 16 11 19 8 8 -8 97 84 97 101 0 8 5 15 10 15 6 0 10
9 10 20 0 11 5 20 10 20 6 0 10 30 10 70 0 40 -4 70 -10 70 -5 0 -10 10 -10
23 0 12 -9 29 -20 37 -11 8 -20 21 -20 30 0 9 -9 22 -19 29 -11 8 -17 20 -14
27 2 6 0 15 -6 19 -6 3 -11 17 -11 31 0 13 -4 24 -10 24 -5 0 -10 20 -10 44 0
25 5 48 10 51 6 3 10 17 10 30 0 13 5 27 11 30 5 4 8 12 6 18 -5 16 51 67 74
67 10 0 19 5 19 10 0 6 9 10 20 10 11 0 20 5 20 10 0 6 78 10 215 10 137 0
215 4 215 10 0 6 30 10 70 10 40 0 70 4 70 10 0 6 11 10 25 10 14 0 25 5 25
10 0 6 14 10 30 10 17 0 30 5 30 10 0 6 7 10 15 10 15 0 55 19 65 31 8 9 44
22 54 20 5 -1 15 7 23 19 8 11 22 20 31 20 9 1 33 19 52 41 19 22 54 60 78 84
23 25 42 48 42 53 0 4 9 14 20 22 11 8 20 22 20 32 0 10 5 18 10 18 6 0 10 9
10 20 0 11 5 20 10 20 6 0 10 9 10 20 0 11 5 20 10 20 6 0 10 9 10 20 0 11 5
20 11 20 6 0 9 10 7 23 -2 13 1 28 8 35 18 17 19 527 1 544 -7 6 -11 26 -9 45
3 20 0 33 -7 33 -6 0 -11 14 -11 30 0 17 -4 30 -10 30 -5 0 -10 9 -10 20 0 11
-4 20 -10 20 -5 0 -10 9 -10 20 0 11 -4 20 -10 20 -5 0 -10 9 -10 20 0 11 -4
20 -10 20 -5 0 -10 7 -10 15 0 8 -4 15 -10 15 -5 0 -10 9 -10 20 0 11 -4 20
-10 20 -5 0 -10 8 -10 18 0 10 -9 24 -19 32 -11 7 -18 17 -15 22 3 4 -8 20
-25 34 -17 14 -31 32 -31 40 0 16 -217 234 -232 234 -6 0 -23 14 -38 30 -15
17 -35 30 -43 30 -9 0 -22 8 -29 18 -17 21 -56 44 -67 38 -4 -3 -14 4 -21 15
-8 10 -22 19 -32 19 -10 0 -18 5 -18 10 0 6 -9 10 -20 10 -11 0 -20 5 -20 10
0 6 -11 10 -25 10 -14 0 -25 5 -25 10 0 6 -9 10 -20 10 -11 0 -20 5 -20 10 0
6 -13 10 -30 10 -16 0 -30 5 -30 10 0 6 -13 10 -30 10 -16 0 -30 5 -30 10 0 6
-11 10 -25 10 -14 0 -25 5 -25 10 0 6 -18 10 -40 10 -22 0 -40 5 -40 11 0 6
-18 9 -44 8 -24 -2 -50 2 -58 8 -20 17 -484 17 -499 0z m-119 -338 c0 -7 10
-9 24 -7 16 3 28 -2 37 -14 7 -10 19 -18 27 -18 17 0 42 -25 42 -42 0 -8 9
-20 20 -28 11 -8 20 -24 20 -36 0 -11 3 -24 6 -27 16 -16 0 -167 -17 -167 -5
0 -9 -7 -9 -16 0 -19 -56 -74 -76 -74 -8 0 -14 -4 -14 -10 0 -5 -9 -10 -20
-10 -11 0 -20 -4 -20 -10 0 -6 -35 -10 -85 -10 -50 0 -85 4 -85 10 0 6 -8 10
-18 10 -28 0 -112 93 -112 124 0 14 -4 26 -10 26 -6 0 -10 32 -10 76 0 47 4
73 10 69 6 -3 10 3 10 14 0 12 5 21 10 21 6 0 10 8 10 18 1 22 28 53 63 71 15
8 27 17 27 21 0 4 11 5 24 3 13 -3 27 0 30 6 9 15 116 15 116 0z m830 0 c0 -6
9 -9 20 -6 11 3 20 1 20 -4 0 -5 8 -9 18 -9 9 0 28 -14 42 -32 14 -17 31 -37
38 -44 6 -7 12 -20 12 -28 0 -9 5 -16 10 -16 6 0 10 -11 10 -25 0 -14 5 -25
10 -25 6 0 10 -18 10 -40 0 -22 -4 -40 -10 -40 -5 0 -10 -15 -10 -33 0 -21 -7
-38 -20 -47 -11 -8 -20 -21 -20 -29 0 -21 -30 -51 -52 -51 -10 0 -18 -4 -18
-10 0 -5 -9 -10 -20 -10 -11 0 -20 -4 -20 -10 0 -6 -35 -10 -85 -10 -50 0 -85
4 -85 10 0 6 -6 10 -13 10 -8 0 -24 9 -37 20 -12 11 -27 17 -31 14 -5 -3 -9 3
-9 13 0 10 -9 25 -20 33 -11 8 -20 22 -20 31 0 10 -5 19 -11 21 -15 5 -13 162
3 189 18 32 90 104 113 114 11 4 30 7 43 6 12 -1 22 2 22 8 0 7 23 11 55 11
34 0 55 -4 55 -11z m-1345 -659 c-4 -6 7 -10 24 -10 17 0 31 -4 31 -10 0 -5 7
-10 15 -10 23 0 95 -70 95 -92 0 -10 5 -18 10 -18 6 0 10 -13 10 -30 0 -16 5
-30 10 -30 6 0 10 -20 10 -45 0 -25 -4 -45 -10 -45 -5 0 -10 -13 -10 -29 0
-19 -8 -35 -22 -45 -12 -9 -19 -18 -16 -22 9 -9 -38 -54 -57 -54 -8 0 -15 -4
-15 -10 0 -5 -9 -10 -20 -10 -11 0 -20 -4 -20 -10 0 -6 -33 -10 -80 -10 -47 0
-80 4 -80 10 0 6 -8 10 -18 10 -10 0 -24 9 -32 20 -8 11 -22 20 -32 20 -10 0
-18 6 -18 13 0 7 -9 23 -19 34 -11 12 -17 24 -13 27 3 4 1 10 -6 15 -16 10
-21 169 -6 175 6 2 15 17 18 33 8 31 68 93 91 93 8 0 15 5 15 10 0 6 11 10 25
10 14 0 25 5 25 10 0 6 23 10 51 10 31 0 48 -4 44 -10z m1835 0 c0 -5 9 -10
20 -10 11 0 20 -4 20 -10 0 -5 7 -10 15 -10 8 0 37 -21 65 -47 37 -35 50 -54
50 -75 0 -15 5 -28 10 -28 6 0 10 -28 10 -65 0 -37 -4 -65 -10 -65 -5 0 -10
-9 -10 -20 0 -11 -5 -20 -11 -20 -6 0 -9 -5 -7 -12 5 -15 -76 -98 -97 -98 -8
0 -15 -4 -15 -10 0 -6 -37 -10 -90 -10 -53 0 -90 4 -90 10 0 6 -7 10 -15 10
-27 0 -115 95 -115 124 0 14 -4 26 -10 26 -6 0 -10 32 -10 75 0 43 4 75 10 75
6 0 10 7 10 15 0 26 49 95 68 95 10 0 24 9 32 20 8 12 26 20 42 20 15 0 28 5
28 10 0 6 23 10 50 10 28 0 50 -4 50 -10z"/>
</g>
</svg>
